<svg id="svg" fill="#000000" stroke="#000000" width="200px" height="200px" version="1.1"
    viewBox="144 144 512 512" xmlns="http://www.w3.org/2000/svg">
    <g id="IconSvg_bgCarrier" stroke-width="0"></g>
    <g id="IconSvg_tracerCarrier" stroke-linecap="round" stroke-linejoin="round" stroke="#CCCCCC"></g>
    <g id="IconSvg_iconCarrier">
        <path xmlns="http://www.w3.org/2000/svg"
            d="m337.08 179.35c-4.1992-0.023437-8.2383 1.6328-11.211 4.6016-2.9766 2.9688-4.6406 7-4.625 11.203v47.418h-111.31c-4.1602 0.007812-8.1484 1.6602-11.094 4.6016-2.9414 2.9375-4.6055 6.9219-4.6211 11.082-0.015625 4.1797 1.6328 8.1953 4.5781 11.16 2.9492 2.9648 6.9531 4.6367 11.137 4.6445h32.195v330.78c-0.015625 4.1758 1.625 8.1875 4.5664 11.152 2.9414 2.9609 6.9375 4.6367 11.113 4.6523h284.38c4.1797-0.007812 8.1875-1.6797 11.133-4.6445 2.9492-2.9648 4.5977-6.9805 4.5781-11.16v-330.78h32.195c4.1758-0.015625 8.1758-1.6914 11.117-4.6562 2.9414-2.9648 4.582-6.9727 4.5664-11.148-0.015625-4.1562-1.6719-8.1367-4.6094-11.074s-6.918-4.5938-11.074-4.6094h-111.34v-47.418c0.015625-4.1953-1.6445-8.2266-4.6133-11.191-2.9648-2.9688-6.9961-4.6289-11.191-4.6133zm15.684 31.488h94.496v31.734h-94.496zm-79.148 63.223h252.77v315.07h-252.77zm79.148 62.883c-4.1523 0.015626-8.1328 1.6758-11.07 4.6133s-4.5938 6.9141-4.6133 11.07v157.35c0.011719 4.1602 1.6641 8.1484 4.6016 11.09 2.9375 2.9453 6.9219 4.6055 11.082 4.625 4.1836 0.015625 8.1992-1.6328 11.164-4.582 2.9648-2.9453 4.6328-6.9531 4.6406-11.133v-157.35c-0.015624-4.1758-1.6875-8.1758-4.6523-11.117-2.9648-2.9375-6.9766-4.582-11.152-4.5664zm94.496 0c-4.1797-0.023437-8.1992 1.6133-11.172 4.5586-2.9688 2.9414-4.6484 6.9414-4.6641 11.125v157.35c0.007813 4.1875 1.6836 8.1953 4.6523 11.145 2.9727 2.9492 6.9961 4.5938 11.184 4.5703 4.1602-0.019531 8.1445-1.6797 11.082-4.625 2.9375-2.9414 4.5938-6.9297 4.6016-11.09v-157.35c-0.015624-4.1562-1.6758-8.1328-4.6133-11.07s-6.918-4.5977-11.07-4.6133z"></path>

    </g>
</svg>